<svg xmlns="http://www.w3.org/2000/svg" xmlns:xlink="http://www.w3.org/1999/xlink" width="205.252" height="18.97" viewBox="0 0 205.252 18.97">
  <defs>
    <clipPath id="clip-path">
      <rect id="사각형_21" data-name="사각형 21" width="205.252" height="18.97" fill="none"/>
    </clipPath>
    <clipPath id="clip-path-2">
      <rect id="사각형_20" data-name="사각형 20" width="205.252" height="18.971" fill="none"/>
    </clipPath>
    <clipPath id="clip-path-3">
      <rect id="사각형_15" data-name="사각형 15" height="0.018" fill="none"/>
    </clipPath>
    <clipPath id="clip-path-4">
      <rect id="사각형_18" data-name="사각형 18" width="0.014" fill="none"/>
    </clipPath>
  </defs>
  <g id="logo" clip-path="url(#clip-path)">
    <path id="패스_32" data-name="패스 32" d="M226.892,15.234V2.577l7.782-1.8V8.563Z" transform="translate(-130.127 -0.444)" fill="#4f4f4f"/>
    <g id="그룹_26" data-name="그룹 26">
      <g id="그룹_25" data-name="그룹 25" clip-path="url(#clip-path-2)">
        <g id="그룹_18" data-name="그룹 18" transform="translate(52.923 14.805)" opacity="0.49">
          <g id="그룹_17" data-name="그룹 17">
            <g id="그룹_16" data-name="그룹 16" clip-path="url(#clip-path-3)">
              <path id="패스_33" data-name="패스 33" d="M124.094,34.722h0" transform="translate(-124.094 -34.713)" fill="#fff"/>
            </g>
          </g>
        </g>
        <path id="패스_34" data-name="패스 34" d="M437.325,34.705a.138.138,0,0,0,0,.014s0,.009,0,.013Z" transform="translate(-250.815 -19.903)" fill="#fff"/>
        <path id="패스_35" data-name="패스 35" d="M3.253,4.727v6.247a1.561,1.561,0,0,0,1.561,1.539H18.87v3.145H4.815A4.812,4.812,0,0,1,0,10.974V4.727A4.8,4.8,0,0,1,4.815.043H18.87V3.166H4.815A1.581,1.581,0,0,0,3.253,4.727" transform="translate(0 -0.025)" fill="#fff"/>
        <path id="패스_36" data-name="패스 36" d="M79.687,15.659H76.449L73.78,10.974H63.228l-2.666,4.685h-3.24L65.35,1.56A2.483,2.483,0,0,1,67.6.043H69.41A2.483,2.483,0,0,1,71.66,1.56ZM72,7.851,69.5,3.444a.507.507,0,0,0-.452-.277H67.963a.508.508,0,0,0-.452.277L65,7.851Z" transform="translate(-32.875 -0.025)" fill="#fff"/>
        <rect id="사각형_17" data-name="사각형 17" width="3.111" height="15.591" transform="translate(76.816 0.036)" fill="#fff"/>
        <g id="그룹_21" data-name="그룹 21" transform="translate(56.501 15.634)" opacity="0.49">
          <g id="그룹_20" data-name="그룹 20">
            <g id="그룹_19" data-name="그룹 19" clip-path="url(#clip-path-4)">
              <path id="패스_37" data-name="패스 37" d="M132.489,36.657h0" transform="translate(-132.483 -36.657)" fill="#fff"/>
            </g>
          </g>
        </g>
        <g id="그룹_24" data-name="그룹 24" transform="translate(52.923 12.04)" opacity="0.49">
          <g id="그룹_23" data-name="그룹 23">
            <g id="그룹_22" data-name="그룹 22" clip-path="url(#clip-path-3)">
              <path id="패스_38" data-name="패스 38" d="M124.094,28.238h0" transform="translate(-124.094 -28.229)" fill="#fff"/>
            </g>
          </g>
        </g>
        <path id="패스_39" data-name="패스 39" d="M130,12.428h-2.691a1.211,1.211,0,0,1-1.211-1.211V.071h-3.245V12.1a3.584,3.584,0,0,0,3.578,3.575h15.264V12.427Z" transform="translate(-70.455 -0.041)" fill="#fff"/>
        <line id="선_1" data-name="선 1" x1="3.227" transform="translate(153.249 15.622)" fill="#fff"/>
        <path id="패스_40" data-name="패스 40" d="M338.858,10.089a3.566,3.566,0,0,0,2.6-3.2V3.4A3.584,3.584,0,0,0,337.979.053H322.564v15.6h3.11V10.233h10.019l.427.75,2.668,4.683h3.245ZM325.675,7.1V3.18h10.951A1.578,1.578,0,0,1,338.2,4.758v.775a1.577,1.577,0,0,1-1.577,1.578H325.675Z" transform="translate(-184.998 -0.03)" fill="#fff"/>
        <path id="패스_41" data-name="패스 41" d="M395.4,6.291H384.737a1.551,1.551,0,1,1,.039-3.1h14.062V.053H383.419A3.583,3.583,0,0,0,379.937,3.4V6.075a1.688,1.688,0,0,0,.026.213,3.575,3.575,0,0,0,3.416,3.132h10.663a1.551,1.551,0,1,1-.039,3.1H379.941v3.127h15.415a3.584,3.584,0,0,0,3.482-3.344V9.632a1.688,1.688,0,0,0-.026-.213A3.575,3.575,0,0,0,395.4,6.291" transform="translate(-217.903 -0.03)" fill="#fff"/>
        <path id="패스_42" data-name="패스 42" d="M270.271,3.164H284.3V3.132h0V0H269.09a3.523,3.523,0,0,0-3.5,3.132h.01a3.622,3.622,0,0,0-.035.47V12.02a3.622,3.622,0,0,0,.035.47h-.01a3.523,3.523,0,0,0,3.5,3.132h15.216V12.491h0V12.46H270.271a1.6,1.6,0,0,1-1.6-1.6V9.328h15.631V6.292H268.675V4.76a1.6,1.6,0,0,1,1.6-1.6" transform="translate(-152.307)" fill="#fff"/>
        <path id="패스_43" data-name="패스 43" d="M219.551,0h0L211.6,1.839,203.665,0h-3.143V8.638A1.8,1.8,0,0,0,201.15,10l10.457,8.966L222.065,10a1.8,1.8,0,0,0,.628-1.366V0ZM203.665.332l7.783,1.8V14.79l-7.783-6.672Zm8.1,14.458V2.131l7.783-1.8V8.118Z" transform="translate(-115.003 0.001)" fill="#fff"/>
        <path id="패스_44" data-name="패스 44" d="M442.031,3.164h14.032V3.132h0V0H440.85a3.523,3.523,0,0,0-3.5,3.132h.01a3.622,3.622,0,0,0-.035.47V12.02a3.633,3.633,0,0,0,.035.47h-.01a3.523,3.523,0,0,0,3.5,3.132h15.216V12.491h0V12.46H442.031a1.6,1.6,0,0,1-1.6-1.6V9.328h15.631V6.292H440.435V4.76a1.6,1.6,0,0,1,1.6-1.6" transform="translate(-250.815)" fill="#fff"/>
      </g>
    </g>
  </g>
</svg>
